<mxfile host="app.diagrams.net" modified="2024-04-13T16:27:02.246Z" agent="Mozilla/5.0 (Windows NT 10.0; Win64; x64) AppleWebKit/537.36 (KHTML, like Gecko) Chrome/123.0.0.0 Safari/537.36 Edg/123.0.0.0" version="24.2.5" etag="1fq0Ijy6p5tRqFkHSrHc" type="github">
  <diagram name="페이지-1" id="C1_CXyizSuTmQhr8aPFf">
    <mxGraphModel>
      <root>
        <mxCell id="0" />
        <mxCell id="1" parent="0" />
      </root>
    </mxGraphModel>
  </diagram>
</mxfile>
